<?xml version="1.0" encoding="UTF-8" standalone="no"?>
<!-- Created with Inkscape (http://www.inkscape.org/) -->

<svg
   xmlns:dc="http://purl.org/dc/elements/1.1/"
   xmlns:cc="http://creativecommons.org/ns#"
   xmlns:rdf="http://www.w3.org/1999/02/22-rdf-syntax-ns#"
   xmlns:svg="http://www.w3.org/2000/svg"
   xmlns="http://www.w3.org/2000/svg"
   version="1.1"
   width="360.36322"
   height="458.9147"
   id="svg2">
  <defs
     id="defs4" />
  <metadata
     id="metadata7">
    <rdf:RDF>
      <cc:Work
         rdf:about="">
        <dc:format>image/svg+xml</dc:format>
        <dc:type
           rdf:resource="http://purl.org/dc/dcmitype/StillImage" />
        <dc:title></dc:title>
      </cc:Work>
    </rdf:RDF>
  </metadata>
  <g
     transform="translate(-75.685714,-35.1875)"
     id="layer2">
    <path
       d="m 365.31665,414.47446 c 14.12238,52.66819 -0.67864,66.18184 -16.1381,69.54102 -15.45949,3.35917 -28.22323,-2.92249 -34.8456,-36.66209 -6.62239,-33.73963 -19.52413,-83.02419 11.00098,-87.88761 31.97657,-5.09467 31.07777,21.79844 39.98272,55.00868 z"
       id="path3014"
       style="fill:#a8866a;fill-opacity:1" />
    <path
       d="m 201.83449,411.88789 c -16.46247,51.98429 -36.21132,55.40069 -51.04672,49.90615 -14.83542,-5.49457 -22.20767,-17.661 -9.61875,-49.65687 12.58892,-31.9959 28.25782,-80.47176 56.59788,-68.13174 29.68762,12.92679 14.4481,35.10345 4.06759,67.88246 z"
       id="path3016"
       style="fill:#a8866a;fill-opacity:1" />
    <path
       d="m 358.57142,368.07648 a 102.14286,50 0 1 1 -204.28572,0 102.14286,50 0 1 1 204.28572,0 z"
       transform="matrix(1,0,0,1.2142857,2.8571428,-89.587817)"
       id="path3007"
       style="fill:#dbb893;fill-opacity:1" />
    <path
       d="m 207.16864,447.3519 c -5.85142,32.71322 -22.22115,38.1894 -38.62759,34.93948 -16.40646,-3.24993 -26.63683,-13.99528 -20.7854,-46.70848 5.85142,-32.71322 8.55431,-61.34039 40.30146,-53.34801 33.25671,8.37241 24.96297,32.4038 19.11153,65.11701 z"
       id="path3009"
       style="fill:#dbb893;fill-opacity:1" />
    <path
       d="m 342.70396,446.32654 c 7.0294,32.48047 -6.02765,43.77073 -22.43727,47.00454 -16.40965,3.23381 -29.95786,-2.81342 -36.98725,-35.29388 -7.02941,-32.48048 -15.4168,-59.98452 16.98442,-64.66644 33.94188,-4.90454 35.41071,20.4753 42.4401,52.95578 z"
       id="path3012"
       style="fill:#dbb893;fill-opacity:1" />
    <path
       d="m 355.71429,368.79075 c 0,0 16.44582,-7.24081 22.13483,-10.03217 9.80054,-4.80871 18.77685,-6.93138 28.90404,-10.83442 17.96076,-10.77972 16.21978,-35.39334 8.25773,-51.31742 -8.17919,-14.86128 -17.86949,-27.19359 -25.44217,-41.06815 -3.81152,-6.98341 3.1397,-15.88674 9.86858,-16.61308 11.93746,-1.28857 48.68044,-5.29491 32.61154,-22.868 -10.39072,-11.36339 -28.33358,-4.80025 -40.12212,0.34948 -17.6899,7.72768 -28.22758,20.31994 -32.21662,28.72815 -3.98904,8.40821 -2.35224,24.03635 1.25395,30.89861 5.16015,7.87399 10.61231,13.98904 15.13265,22.21196 3.48411,6.33792 2.23866,17.0823 -0.19489,23.84696 -4.88103,6.97512 -9.89373,10.724 -17.59574,14.30363 -6.48051,2.43153 -15.15408,8.44053 -15.15408,8.44053 z"
       id="path3018"
       style="fill:#dbb893;fill-opacity:1;stroke:none" />
    <path
       d="m 348.92857,189.50504 a 111.42857,99.64286 0 1 1 -222.85714,0 111.42857,99.64286 0 1 1 222.85714,0 z"
       transform="matrix(1.0272436,0,0,1.1290323,-15.934638,-6.9522616)"
       id="path3023"
       style="fill:#ddbc99;fill-opacity:1;stroke:none" />
    <path
       d="m 143.875,35.1875 c -37.90434,28.389342 -12.10268,117.88839 -12.10268,117.88839 0,0 74.34288,-31.42971 92.75893,-39.01339 C 224.48973,101.43825 200.73286,75.880914 192.52232,66.473214 172.80482,43.880731 154.40468,38.768628 143.875,35.1875 z"
       id="path3025"
       style="fill:#ddbc99;fill-opacity:1;stroke:none" />
    <path
       d="m 401.4433,131.53367 c -33.86388,-33.104864 -118.35037,6.11042 -118.35037,6.11042 0,0 42.45365,68.64675 52.77055,85.68274 12.4687,-1.97607 34.08253,-29.36967 42.12053,-38.92521 19.30318,-22.9475 21.53448,-41.91378 23.45929,-52.86795 z"
       id="path3036"
       style="fill:#ddbc99;fill-opacity:1;stroke:none" />
    <path
       d="m 194.28571,99.505038 c -40.56222,13.280582 -52.85714,35.357142 -52.85714,35.357142 0,0 -5.51077,-29.49616 -3.92857,-42.499999 1.5822,-13.003843 11.78571,-33.928572 11.78571,-33.928572 0,0 19.91042,11.570602 27.85715,18.928572 6.84928,6.34183 21.16644,20.825484 17.14285,22.142857 z"
       id="path3038"
       style="fill:#f28074;fill-opacity:1;stroke:none" />
    <path
       d="m 342.90379,203.4063 c -4.37729,-40.55393 -19.31865,-58.90652 -19.31865,-58.90652 0,0 17.707,-6.24343 30.71183,-4.66934 13.00482,1.5741 29.29306,1.40741 29.29306,1.40741 0,0 -7.62962,30.27478 -14.98264,38.22609 -6.33756,6.85324 -25.24926,28.15168 -25.7036,23.94236 z"
       id="path3040"
       style="fill:#f28074;fill-opacity:1;stroke:none" />
    <path
       d="m 223.21429,207.36218 a 34.285713,34.285713 0 1 1 -68.57143,0 34.285713,34.285713 0 1 1 68.57143,0 z"
       id="path3046"
       style="fill:#ffffff;fill-opacity:1;stroke:none" />
    <path
       d="m 303.57143,222.00504 a 36.07143,36.07143 0 1 1 -72.14286,0 36.07143,36.07143 0 1 1 72.14286,0 z"
       id="path3048"
       style="fill:#ffffff;fill-opacity:1;stroke:none" />
    <path
       d="m 191.78571,248.07647 c 0,0 17.7062,-1.17945 26.04661,0.48522 8.34041,1.66467 23.23911,9.15764 23.23911,9.15764 0,0 -2.08183,5.99873 -9.7026,11.23758 -7.62076,5.23885 -18.86883,7.33384 -18.86883,7.33384 0,0 -9.65046,-5.15703 -15.40954,-10.86569 -5.75908,-5.70866 -5.30475,-17.34859 -5.30475,-17.34859 z"
       id="path3050"
       style="fill:#cd8b6b;fill-opacity:1;stroke:#000000;stroke-width:2;stroke-linecap:butt;stroke-linejoin:miter;stroke-miterlimit:4;stroke-opacity:1;stroke-dasharray:none" />
    <path
       d="m 236.07143,297.00503 c 0,0 -11.7581,5.69954 -26.23913,5.23786 -14.48102,-0.46167 -20.90373,-15.95214 -20.90373,-15.95214 l 0,0"
       id="path3052"
       style="fill:none;stroke:#000000;stroke-width:2;stroke-linecap:butt;stroke-linejoin:miter;stroke-miterlimit:4;stroke-opacity:1;stroke-dasharray:none" />
    <path
       d="m 211.42857,276.6479 c 0,0 -3.45723,5.29207 -4.40003,9.57453 -0.94281,4.28245 0.8286,15.06832 0.8286,15.06832"
       id="path3054"
       style="fill:none;stroke:#000000;stroke-width:2;stroke-linecap:butt;stroke-linejoin:miter;stroke-miterlimit:4;stroke-opacity:1;stroke-dasharray:none" />
    <path
       d="M 157.85714,235.21932 81.428572,224.86218"
       id="path3056"
       style="fill:none;stroke:#000000;stroke-width:2.20000005;stroke-linecap:butt;stroke-linejoin:miter;stroke-miterlimit:4;stroke-opacity:1;stroke-dasharray:none" />
    <path
       d="m 76.785714,246.29075 87.142856,3.21429"
       id="path3058"
       style="fill:none;stroke:#000000;stroke-width:2.20000005;stroke-linecap:butt;stroke-linejoin:miter;stroke-miterlimit:4;stroke-opacity:1;stroke-dasharray:none" />
    <path
       d="m 171.07143,267.00504 -92.500001,5.35714"
       id="path3060"
       style="fill:none;stroke:#000000;stroke-width:2.20000005;stroke-linecap:butt;stroke-linejoin:miter;stroke-miterlimit:4;stroke-opacity:1;stroke-dasharray:none" />
    <path
       d="M 352.5,327.00504 266.07143,293.43361"
       id="path3062"
       style="fill:none;stroke:#000000;stroke-width:2.20000005;stroke-linecap:butt;stroke-linejoin:miter;stroke-miterlimit:4;stroke-opacity:1;stroke-dasharray:none" />
    <path
       d="M 275.71429,278.07647 340,295.57647"
       id="path3064"
       style="fill:none;stroke:#000000;stroke-width:2.20000005;stroke-linecap:butt;stroke-linejoin:miter;stroke-miterlimit:4;stroke-opacity:1;stroke-dasharray:none" />
    <path
       d="M 353.21429,277.36218 284.64286,267.00504"
       id="path3066"
       style="fill:none;stroke:#000000;stroke-width:2.20000005;stroke-linecap:butt;stroke-linejoin:miter;stroke-miterlimit:4;stroke-opacity:1;stroke-dasharray:none" />
    <path
       d="m 198.22915,205.57646 a 8.586297,9.0913725 0 1 1 -17.17259,0 8.586297,9.0913725 0 1 1 17.17259,0 z"
       id="path3068"
       style="fill:#000000;fill-opacity:1;stroke:none" />
    <path
       d="m 276.02501,221.64789 a 9.5964489,9.0913725 0 1 1 -19.1929,0 9.5964489,9.0913725 0 1 1 19.1929,0 z"
       id="path3070"
       style="fill:#000000;fill-opacity:1;stroke:none" />
  </g>
</svg>
