<?xml version="1.0" encoding="UTF-8" standalone="no"?>
<!-- Created with Inkscape (http://www.inkscape.org/) -->

<svg
   xmlns:dc="http://purl.org/dc/elements/1.1/"
   xmlns:cc="http://creativecommons.org/ns#"
   xmlns:rdf="http://www.w3.org/1999/02/22-rdf-syntax-ns#"
   xmlns:svg="http://www.w3.org/2000/svg"
   xmlns="http://www.w3.org/2000/svg"
   version="1.1"
   width="358.15625"
   height="274.5625"
   id="svg3143">
  <defs
     id="defs3145" />
  <metadata
     id="metadata3148">
    <rdf:RDF>
      <cc:Work
         rdf:about="">
        <dc:format>image/svg+xml</dc:format>
        <dc:type
           rdf:resource="http://purl.org/dc/dcmitype/StillImage" />
        <dc:title></dc:title>
      </cc:Work>
    </rdf:RDF>
  </metadata>
  <g
     transform="translate(-59.499989,-289.71932)"
     id="layer1">
    <path
       d="M 178.5625,0 C 79.94022,0 0,45.42005 0,101.4375 c 0,56.01746 79.94022,101.40625 178.5625,101.40625 18.49168,0 36.3502,-1.56771 53.125,-4.53125 l 49.40625,70.25 1.125,-84.53125 c 45.34848,-18.39368 74.9375,-48.52983 74.9375,-82.59375 C 357.15625,45.42005 277.18477,0 178.5625,0 z"
       transform="translate(59.999989,295.21932)"
       id="path3151"
       style="fill:#f2f2f2;fill-opacity:1;stroke:#000000;stroke-opacity:1" />
    <g
       transform="matrix(0.98627396,0.16511717,-0.16511717,0.98627396,0,0)"
       id="text3155"
       style="font-size:80px;font-style:normal;font-variant:normal;font-weight:bold;font-stretch:normal;line-height:125%;letter-spacing:0px;word-spacing:0px;fill:#000000;fill-opacity:1;stroke:none;font-family:Rockwell Std;-inkscape-font-specification:Rockwell Std Bold">
      <path
         d="m 159.81277,335.75187 c 11.32312,-2.55384 5.86239,12.72308 7.03991,19.44393 -9.74812,-2.10826 -8.85594,14.57188 2.53773,9.67569 5.50068,0 11.00137,0 16.50205,0 2.11961,-10.33764 -11.63504,-9.72047 -6.74816,-21.4893 2.91907,-15.78578 19.27194,0.98627 13.46807,11.67882 -0.0538,5.35517 -1.73292,12.33577 6.0938,9.81048 6.2248,-0.007 18.59906,2.14589 11.60885,-8.09578 -12.28397,-1.14789 -4.65847,-31.40985 7.26894,-15.91116 2.30584,7.18515 0.0463,15.22265 0.78808,22.90188 2.67937,2.62206 10.26511,0.33775 14.79923,1.10506 12.63144,0.56384 -0.81683,-10.66108 -2.73862,-13.36702 3.10841,-12.20281 -2.8462,-31.24059 -18.65048,-23.62456 -15.05577,2.23892 -29.65319,-1.80921 -45.64511,-1.26848 -5.8067,-1.13189 -7.70053,4.52586 -6.32429,9.14044 z"
         id="path3160" />
      <path
         d="m 270.79111,353.51164 c -3.29381,13.16857 -27.50463,-4.73699 -10.5342,-5.03994 6.71136,0 13.42271,0 20.13407,0 3.14326,-16.85828 -19.4488,-29.66778 -32.34262,-18.24454 -15.08938,11.41616 -5.85098,37.59482 13.38375,35.63641 7.85563,1.8853 27.12215,-10.31855 11.4718,-11.70048 -0.70427,-0.21715 -1.40853,-0.4343 -2.1128,-0.65145 z m -18.07977,-11.75985 c -1.9755,-16.09705 26.14117,0.61315 7.05366,0 -2.35122,0 -4.70244,0 -7.05366,0 z"
         id="path3162" />
      <path
         d="m 298.0126,365.43148 c 9.52341,2.427 13.86725,-2.89603 14.46732,-12.40571 2.3479,-13.55898 6.07521,-4.52963 7.6351,2.56316 -0.12845,9.18677 10.14993,14.97732 15.463,5.62727 1.92658,-8.66185 5.39347,-16.95445 7.95399,-25.46433 11.62798,-2.49667 0.45954,-12.86944 -7.17949,-8.71989 -15.02944,-2.02763 2.76202,12.69105 -5.37585,19.47462 -4.29719,1.6867 -4.81464,-11.20645 -7.51649,-15.65118 -7.6464,-13.94949 -17.82495,9.03185 -18.38822,17.68237 -6.39543,-5.38476 -3.34492,-13.48009 -0.93212,-19.20768 -6.44542,-6.94139 -32.47117,-1.22004 -15.84738,7.74159 3.91022,8.43267 6.12371,19.21311 9.72014,28.35978 z"
         id="path3164" />
      <path
         d="m 375.89269,327.03198 c 1.37407,3.86975 -2.98676,13.4744 2.61163,13.11983 4.6865,-0.55732 13.06369,2.57606 10.5082,-5.22326 1.56196,-6.80578 -0.98711,-9.50053 -7.83489,-7.89657 -1.76164,0 -3.52329,0 -5.28494,0 z m 0,24.71968 c 1.37407,3.86975 -2.98676,13.4744 2.61163,13.11983 4.6865,-0.55732 13.06369,2.57606 10.5082,-5.22326 1.56196,-6.80578 -0.98711,-9.50053 -7.83489,-7.89657 -1.76164,0 -3.52329,0 -5.28494,0 z"
         id="path3166" />
      <path
         d="m 400.09399,348.2317 c -1.35348,19.10122 30.58992,24.65332 36.17855,6.63932 6.03576,-12.51277 -13.82648,-17.7449 -1.70012,-26.0785 5.34103,-12.89903 -10.80758,-23.11606 -22.08161,-18.49558 -12.68687,0.71574 -12.26553,23.29391 0.85801,12.08147 11.88614,-11.93111 10.42487,11.1192 0.93052,14.09449 5.63043,5.26393 19.21414,14.03071 4.07643,19.96811 -10.89222,-0.39972 -4.40221,-13.5057 -18.26178,-8.20931 z"
         id="path3168" />
    </g>
  </g>
</svg>
